<svg xmlns="http://www.w3.org/2000/svg" width="360" height="260" viewBox="0 0 360 260">
  <defs>
    <linearGradient id="steel" x2="1" y2="0"><stop stop-color="#858e88"/><stop offset=".45" stop-color="#e8e6d9"/><stop offset="1" stop-color="#69756f"/></linearGradient>
    <linearGradient id="face" x2="0" y2="1"><stop stop-color="#66716a"/><stop offset="1" stop-color="#3e4945"/></linearGradient>
    <linearGradient id="shot" x2="0" y2="1"><stop stop-color="#d5a263"/><stop offset=".3" stop-color="#a65d2b"/><stop offset="1" stop-color="#4f2d1e"/></linearGradient>
  </defs>
  <ellipse cx="177" cy="248" rx="130" ry="8" fill="#b6a589" opacity=".35"/>
  <path d="M91 31h178c12 0 19 9 19 20v91H72V51c0-11 7-20 19-20z" fill="url(#face)" stroke="#36433e" stroke-width="4"/>
  <path d="M91 34h178c10 0 16 7 16 16v17H75V50c0-9 6-16 16-16z" fill="url(#steel)"/>
  <path d="M75 72h210" stroke="#bac6bc" stroke-width="3" opacity=".5"/>
  <circle cx="116" cy="105" r="24" fill="#d9d7c9" stroke="#263b36" stroke-width="5"/>
  <circle cx="116" cy="105" r="18" fill="#f9f6e9" stroke="#68766b" stroke-width="2"/>
  <path d="M116 105l12-10" stroke="#9d5b32" stroke-width="3" stroke-linecap="round"/>
  <circle cx="116" cy="105" r="3" fill="#4c5950"/>
  <circle cx="243" cy="102" r="9" fill="#dbc5a0" stroke="#2d3d37" stroke-width="3"/>
  <circle cx="243" cy="102" r="3" fill="#a26338"/>
  <path d="M85 142h190v8H85z" fill="url(#steel)" stroke="#3c4a43" stroke-width="2"/>
  <path d="M163 140h38v21h-38z" fill="url(#steel)" stroke="#49564e" stroke-width="3"/>
  <path d="M157 161h50l-5 10h-40z" fill="#484843" stroke="#262e2a" stroke-width="2"/>
  <path d="M177 169h8l-3 17h-2z" fill="#9f9b88"/>
  <path d="M200 166h59v8h-59z" fill="#594333" stroke="#392f29" stroke-width="2"/>
  <rect x="247" y="163" width="24" height="15" rx="6" fill="#4f362b"/>
  <path d="M258 150h8v58" stroke="url(#steel)" stroke-width="7" stroke-linecap="round"/>
  <path d="M266 208l-5 6" stroke="#6f7972" stroke-width="5" stroke-linecap="round"/>
  <path d="M150 198h62l-5 39c-1 6-7 9-13 9h-27c-6 0-12-3-13-9z" fill="#fcf8ed" stroke="#8a8172" stroke-width="3"/>
  <path d="M155 216h52l-3 19c-1 4-5 6-10 6h-27c-5 0-9-2-10-6z" fill="url(#shot)"/>
  <ellipse cx="181" cy="216" rx="26" ry="4" fill="#d7a264"/>
  <path d="M211 205h12c13 0 13 25-1 25h-12" fill="none" stroke="#eee7d9" stroke-width="7"/>
  <path d="M151 246h91" stroke="#806c55" stroke-width="5" stroke-linecap="round"/>
  <path d="M90 151v88h57m123-88v88h-25" fill="none" stroke="#4e5c53" stroke-width="9"/>
  <path d="M96 215h44m-44 8h44m-44 8h44" stroke="#9fa89b" stroke-width="2"/>
  <path d="M180 176v20" stroke="#9e5a2d" stroke-width="3" stroke-linecap="round"/>
</svg>
